<mxfile host="Electron" agent="Mozilla/5.0 (Windows NT 10.0; Win64; x64) AppleWebKit/537.36 (KHTML, like Gecko) draw.io/28.0.6 Chrome/138.0.7204.100 Electron/37.2.3 Safari/537.36" version="28.0.6">
  <diagram name="Page-1" id="ynKN6jnHO9y8TqsjVyvz">
    <mxGraphModel dx="1042" dy="626" grid="1" gridSize="10" guides="1" tooltips="1" connect="1" arrows="1" fold="1" page="1" pageScale="1" pageWidth="827" pageHeight="1169" math="0" shadow="0">
      <root>
        <mxCell id="0" />
        <mxCell id="1" parent="0" />
        <mxCell id="yCV9qRQQjQ-XNg60Bl1y-1" style="edgeStyle=orthogonalEdgeStyle;rounded=0;orthogonalLoop=1;jettySize=auto;html=1;" parent="1" source="yCV9qRQQjQ-XNg60Bl1y-5" edge="1">
          <mxGeometry relative="1" as="geometry">
            <mxPoint x="450" y="282" as="targetPoint" />
            <Array as="points">
              <mxPoint x="450" y="320" />
              <mxPoint x="450" y="282" />
            </Array>
          </mxGeometry>
        </mxCell>
        <mxCell id="yCV9qRQQjQ-XNg60Bl1y-2" value="F3: תוצאות ניטור ל-FRONTEND" style="edgeLabel;html=1;align=center;verticalAlign=middle;resizable=0;points=[];" parent="yCV9qRQQjQ-XNg60Bl1y-1" vertex="1" connectable="0">
          <mxGeometry x="-0.6143" relative="1" as="geometry">
            <mxPoint x="-76" as="offset" />
          </mxGeometry>
        </mxCell>
        <mxCell id="yCV9qRQQjQ-XNg60Bl1y-3" style="edgeStyle=orthogonalEdgeStyle;rounded=0;orthogonalLoop=1;jettySize=auto;html=1;entryX=0;entryY=0.25;entryDx=0;entryDy=0;" parent="1" source="yCV9qRQQjQ-XNg60Bl1y-5" target="yCV9qRQQjQ-XNg60Bl1y-8" edge="1">
          <mxGeometry relative="1" as="geometry">
            <Array as="points">
              <mxPoint x="903" y="258" />
            </Array>
          </mxGeometry>
        </mxCell>
        <mxCell id="yCV9qRQQjQ-XNg60Bl1y-4" value="F2:נתוני פקטות&amp;nbsp;חריגות" style="edgeLabel;html=1;align=center;verticalAlign=middle;resizable=0;points=[];" parent="yCV9qRQQjQ-XNg60Bl1y-3" vertex="1" connectable="0">
          <mxGeometry x="-0.0771" y="3" relative="1" as="geometry">
            <mxPoint y="1" as="offset" />
          </mxGeometry>
        </mxCell>
        <mxCell id="yCV9qRQQjQ-XNg60Bl1y-5" value="P2.1:לוכד&amp;nbsp; וניטור פקטות" style="ellipse;whiteSpace=wrap;html=1;aspect=fixed;fillColor=#f8cecc;strokeColor=#b85450;" parent="1" vertex="1">
          <mxGeometry x="725" y="250" width="80" height="80" as="geometry" />
        </mxCell>
        <mxCell id="yCV9qRQQjQ-XNg60Bl1y-6" style="edgeStyle=orthogonalEdgeStyle;rounded=0;orthogonalLoop=1;jettySize=auto;html=1;entryX=1;entryY=0;entryDx=0;entryDy=0;exitX=0;exitY=0.75;exitDx=0;exitDy=0;" parent="1" source="yCV9qRQQjQ-XNg60Bl1y-8" target="yCV9qRQQjQ-XNg60Bl1y-17" edge="1">
          <mxGeometry relative="1" as="geometry">
            <Array as="points">
              <mxPoint x="980" y="273" />
              <mxPoint x="980" y="350" />
              <mxPoint x="793" y="350" />
            </Array>
          </mxGeometry>
        </mxCell>
        <mxCell id="yCV9qRQQjQ-XNg60Bl1y-7" value="F4:נתוני פקטות זדוניים" style="edgeLabel;html=1;align=center;verticalAlign=middle;resizable=0;points=[];" parent="yCV9qRQQjQ-XNg60Bl1y-6" vertex="1" connectable="0">
          <mxGeometry x="0.1617" y="-1" relative="1" as="geometry">
            <mxPoint as="offset" />
          </mxGeometry>
        </mxCell>
        <mxCell id="yCV9qRQQjQ-XNg60Bl1y-8" value="D2: מאגר פקטות חריגות" style="rounded=0;whiteSpace=wrap;html=1;fillColor=#e1d5e7;strokeColor=#9673a6;" parent="1" vertex="1">
          <mxGeometry x="1000" y="250" width="110" height="30" as="geometry" />
        </mxCell>
        <mxCell id="yCV9qRQQjQ-XNg60Bl1y-9" style="edgeStyle=orthogonalEdgeStyle;rounded=0;orthogonalLoop=1;jettySize=auto;html=1;entryX=0.5;entryY=0;entryDx=0;entryDy=0;" parent="1" source="yCV9qRQQjQ-XNg60Bl1y-11" target="yCV9qRQQjQ-XNg60Bl1y-5" edge="1">
          <mxGeometry relative="1" as="geometry" />
        </mxCell>
        <mxCell id="yCV9qRQQjQ-XNg60Bl1y-10" value="F1: נתוני בקשת ניטור לדקה" style="edgeLabel;html=1;align=center;verticalAlign=middle;resizable=0;points=[];" parent="yCV9qRQQjQ-XNg60Bl1y-9" vertex="1" connectable="0">
          <mxGeometry x="-0.1051" y="2" relative="1" as="geometry">
            <mxPoint x="15" y="2" as="offset" />
          </mxGeometry>
        </mxCell>
        <mxCell id="yCV9qRQQjQ-XNg60Bl1y-11" value="E1:User" style="rounded=0;whiteSpace=wrap;html=1;fillColor=#fff2cc;strokeColor=#d6b656;" parent="1" vertex="1">
          <mxGeometry x="360" y="220" width="120" height="60" as="geometry" />
        </mxCell>
        <mxCell id="yCV9qRQQjQ-XNg60Bl1y-12" value="E2: Mailjet שירות" style="rounded=0;whiteSpace=wrap;html=1;fillColor=#fff2cc;strokeColor=#d6b656;" parent="1" vertex="1">
          <mxGeometry x="370" y="380" width="120" height="60" as="geometry" />
        </mxCell>
        <mxCell id="yCV9qRQQjQ-XNg60Bl1y-13" style="edgeStyle=orthogonalEdgeStyle;rounded=0;orthogonalLoop=1;jettySize=auto;html=1;entryX=1;entryY=0.5;entryDx=0;entryDy=0;" parent="1" source="yCV9qRQQjQ-XNg60Bl1y-17" target="yCV9qRQQjQ-XNg60Bl1y-12" edge="1">
          <mxGeometry relative="1" as="geometry" />
        </mxCell>
        <mxCell id="yCV9qRQQjQ-XNg60Bl1y-14" value="F5: פרטי הודעת מייל&amp;nbsp;" style="edgeLabel;html=1;align=center;verticalAlign=middle;resizable=0;points=[];" parent="yCV9qRQQjQ-XNg60Bl1y-13" vertex="1" connectable="0">
          <mxGeometry x="0.0507" y="1" relative="1" as="geometry">
            <mxPoint x="1" as="offset" />
          </mxGeometry>
        </mxCell>
        <mxCell id="yCV9qRQQjQ-XNg60Bl1y-15" style="edgeStyle=orthogonalEdgeStyle;rounded=0;orthogonalLoop=1;jettySize=auto;html=1;entryX=0.5;entryY=1;entryDx=0;entryDy=0;" parent="1" source="yCV9qRQQjQ-XNg60Bl1y-17" target="yCV9qRQQjQ-XNg60Bl1y-8" edge="1">
          <mxGeometry relative="1" as="geometry" />
        </mxCell>
        <mxCell id="yCV9qRQQjQ-XNg60Bl1y-16" value="F6:נתוני פקטות&amp;nbsp;זדוניים" style="edgeLabel;html=1;align=center;verticalAlign=middle;resizable=0;points=[];" parent="yCV9qRQQjQ-XNg60Bl1y-15" vertex="1" connectable="0">
          <mxGeometry x="-0.1105" y="1" relative="1" as="geometry">
            <mxPoint y="1" as="offset" />
          </mxGeometry>
        </mxCell>
        <mxCell id="yCV9qRQQjQ-XNg60Bl1y-17" value="&lt;div&gt;P2.2:&lt;/div&gt;&lt;div&gt;שליחת&amp;nbsp;ד&quot;וח&lt;/div&gt;" style="ellipse;whiteSpace=wrap;html=1;aspect=fixed;fillColor=#f8cecc;strokeColor=#b85450;" parent="1" vertex="1">
          <mxGeometry x="725" y="370" width="80" height="80" as="geometry" />
        </mxCell>
      </root>
    </mxGraphModel>
  </diagram>
</mxfile>
